<svg width="12" height="12" viewBox="0 0 12 12" fill="none" xmlns="http://www.w3.org/2000/svg">
<path fill-rule="evenodd" clip-rule="evenodd" d="M5.99995 0C6.36814 0 6.66661 0.298474 6.66661 0.666661V5.33329H11.3332C11.7014 5.33329 11.9999 5.63177 11.9999 5.99995C11.9999 6.36814 11.7014 6.66661 11.3332 6.66661H6.66661V11.3332C6.66661 11.7014 6.36814 11.9999 5.99995 11.9999C5.63177 11.9999 5.33329 11.7014 5.33329 11.3332V6.66661H0.666661C0.298474 6.66661 0 6.36814 0 5.99995C3.97361e-08 5.63176 0.298475 5.33329 0.666661 5.33329L5.33329 5.33329V0.666661C5.33329 0.298474 5.63177 0 5.99995 0Z" fill="#1A1A1A"/>
</svg>
