<svg width="177" height="53" viewBox="0 0 177 53" fill="none" xmlns="http://www.w3.org/2000/svg">
<rect x="0.433518" y="0.433518" width="176.133" height="51.1917" rx="25.5776" fill="#1A1A1A"/>
<rect x="0.433518" y="0.433518" width="176.133" height="51.1917" rx="25.5776" stroke="#262626" stroke-width="0.867036"/>
<path fill-rule="evenodd" clip-rule="evenodd" d="M26.0294 43.3824C35.6132 43.3824 43.3824 35.6132 43.3824 26.0294C43.3824 16.4457 35.6132 8.67651 26.0294 8.67651C16.4457 8.67651 8.67651 16.4457 8.67651 26.0294C8.67651 35.6132 16.4457 43.3824 26.0294 43.3824Z" fill="#262626"/>
<path fill-rule="evenodd" clip-rule="evenodd" d="M24.509 18.0205C25.462 18.0205 26.4115 18.0205 27.3645 18.0205C27.3085 18.6652 27.2489 19.3134 27.1964 19.9581C28.307 20.0387 29.3897 20.396 30.3638 20.9251C29.9433 21.9833 29.5194 23.0414 29.0954 24.0995C28.2755 23.4023 27.1964 23.0169 26.1207 23.0309C25.8509 23.0379 25.5706 23.0904 25.3464 23.2446C25.1992 23.3462 25.0906 23.5039 25.059 23.6791C25.0345 23.8192 25.0415 23.9769 25.1186 24.103C25.2062 24.2432 25.3604 24.3273 25.5145 24.3798C25.8299 24.492 26.1697 24.499 26.4991 24.534C27.2734 24.6286 28.0513 24.7617 28.7836 25.0385C29.3512 25.2558 29.8943 25.5816 30.2832 26.0581C30.6511 26.4961 30.8648 27.0497 30.9454 27.6173C31.04 28.2725 31.012 28.9523 30.8087 29.5899C30.6511 30.1015 30.3813 30.578 30.0309 30.9809C29.3056 31.8218 28.2405 32.3264 27.1473 32.456C27.1823 33.1463 27.2244 33.833 27.2629 34.5232C26.3589 34.5232 25.4585 34.5232 24.558 34.5232C24.593 33.84 24.6386 33.1568 24.6701 32.4735C23.9449 32.449 23.2266 32.2878 22.5503 32.0321C21.8951 31.7833 21.2715 31.4539 20.6898 31.0685C21.1173 29.9683 21.5448 28.8682 21.9757 27.7645C22.4628 28.1744 22.9813 28.5563 23.5489 28.8471C24.1586 29.159 24.8348 29.3587 25.5215 29.3657C25.8474 29.3692 26.1838 29.3517 26.4921 29.2396C26.6813 29.1695 26.867 29.0469 26.9511 28.8541C27.0387 28.6509 27.0317 28.3952 26.8985 28.213C26.8039 28.0903 26.6708 28.0062 26.5306 27.9467C26.3414 27.8696 26.1452 27.8275 25.9455 27.796C25.2097 27.6769 24.4704 27.5788 23.7592 27.3475C23.188 27.1618 22.6309 26.9025 22.1754 26.5031C21.8881 26.2544 21.6499 25.9495 21.4817 25.6062C21.2294 25.0946 21.1348 24.5165 21.1418 23.9489C21.1418 23.3147 21.2715 22.67 21.5868 22.1129C21.8601 21.6154 22.2771 21.2089 22.7466 20.8971C23.3142 20.5222 23.9484 20.2664 24.593 20.0597C24.565 19.38 24.537 18.7002 24.509 18.0205Z" fill="#CAFF33"/>
<path d="M84.9352 26.03C84.9352 35.5633 77.2071 43.2916 67.6739 43.2916C58.1406 43.2916 50.4124 35.5633 50.4124 26.03C50.4124 16.4968 58.1406 8.76862 67.6739 8.76862C77.207 8.76862 84.9352 16.4968 84.9352 26.03Z" fill="#262626"/>
<path d="M72.5249 33.2423L72.1266 31.4336C72.104 31.3273 72.0471 31.2476 71.9559 31.1947C71.8572 31.1415 71.7587 31.1342 71.6602 31.1721L71.6032 31.1947L71.4666 31.2288C71.4058 31.2438 71.3357 31.261 71.256 31.2799C71.1764 31.2989 71.0837 31.3177 70.9773 31.3368C70.8715 31.3557 70.7591 31.3729 70.6419 31.3881C70.5244 31.4029 70.3975 31.4164 70.2609 31.4279C70.1242 31.4391 69.9879 31.4448 69.8512 31.4448C68.888 31.4448 68.0214 31.1851 67.2517 30.6656C66.4819 30.1459 65.915 29.4425 65.551 28.5553H69.9534C70.037 28.5553 70.1128 28.527 70.1808 28.4699C70.2493 28.4132 70.2911 28.3431 70.3059 28.2594L70.5789 26.9852C70.6018 26.8718 70.5789 26.7693 70.5109 26.6782C70.4351 26.5871 70.34 26.5415 70.2264 26.5415H65.005C64.9823 26.0258 64.9823 25.6277 65.005 25.347H70.5565C70.7615 25.347 70.8827 25.2485 70.9206 25.0513L71.1936 23.7544C71.2162 23.6483 71.1901 23.5498 71.114 23.4587C71.046 23.3677 70.9512 23.322 70.8298 23.322H65.5056C65.8848 22.4726 66.4536 21.8052 67.2121 21.3198C67.9705 20.8343 68.8275 20.5916 69.7831 20.5916C69.8135 20.5765 69.9253 20.5803 70.1186 20.603C70.3119 20.6257 70.4221 20.6352 70.4485 20.6314C70.4747 20.6277 70.5737 20.6391 70.7442 20.6655C70.9149 20.692 71.0003 20.7053 71.0003 20.7053L71.1993 20.7451C71.2564 20.7566 71.3 20.7659 71.3302 20.7736L71.3758 20.7849C71.4743 20.8154 71.5651 20.8058 71.6488 20.7566C71.7323 20.7071 71.7854 20.6333 71.8082 20.5347L72.2975 18.7259C72.3201 18.6273 72.3086 18.5363 72.2634 18.4529C72.1951 18.3617 72.1191 18.3048 72.0357 18.2822C71.338 18.1078 70.6021 18.0205 69.8286 18.0205C68.1296 18.0205 66.611 18.506 65.2724 19.4767C63.9337 20.4474 63.0103 21.7292 62.5022 23.3218H61.3874C61.2812 23.3218 61.194 23.3559 61.1257 23.4242C61.0576 23.4923 61.0234 23.5796 61.0234 23.6858V24.9827C61.0234 25.0889 61.0575 25.1762 61.1257 25.2442C61.1941 25.3126 61.2813 25.3466 61.3874 25.3466H62.1496C62.1267 25.7107 62.1231 26.1087 62.1382 26.5412H61.3874C61.2888 26.5412 61.2035 26.5772 61.1315 26.6492C61.0595 26.7212 61.0234 26.8066 61.0234 26.905V28.1906C61.0234 28.2894 61.0595 28.3744 61.1315 28.4467C61.2035 28.5188 61.2888 28.5545 61.3874 28.5545H62.4682C62.946 30.2305 63.8486 31.5636 65.1758 32.5533C66.5031 33.5433 68.0541 34.038 69.8286 34.038C69.9729 34.038 70.1188 34.0344 70.2667 34.0265C70.415 34.0189 70.5531 34.0075 70.6821 33.9925C70.811 33.9775 70.9381 33.9606 71.0632 33.9415C71.1883 33.9224 71.3021 33.9037 71.4044 33.8845C71.5068 33.8656 71.6035 33.8467 71.6944 33.8279C71.7855 33.8087 71.867 33.7881 71.9392 33.7652C72.0112 33.7427 72.0716 33.7255 72.1211 33.7143C72.1705 33.7029 72.2103 33.6894 72.2404 33.6745L72.2974 33.663C72.3809 33.6327 72.4454 33.5777 72.4908 33.4979C72.5363 33.4187 72.5475 33.3333 72.5249 33.2423Z" fill="#CAFF33"/>
<path d="M126.156 30.2275C123.838 39.5238 114.422 45.1809 105.124 42.8632C95.8313 40.5455 90.1737 31.1294 92.492 21.8336C94.8086 12.5362 104.224 6.8781 113.519 9.1958C122.816 11.5135 128.473 20.9307 126.155 30.2275H126.156Z" fill="#262626"/>
<path fill-rule="evenodd" clip-rule="evenodd" d="M114.55 24.0135C114.784 22.4471 113.591 21.6051 111.96 21.0433L112.489 18.9214L111.197 18.5995L110.682 20.6655C110.343 20.5809 109.994 20.5011 109.648 20.422L110.167 18.3424L108.876 18.0205L108.346 20.1417C108.065 20.0776 107.789 20.0144 107.522 19.9478L107.523 19.9412L105.742 19.4964L105.398 20.8759C105.398 20.8759 106.357 21.0955 106.336 21.1092C106.859 21.2398 106.954 21.5859 106.938 21.8604L106.336 24.2777C106.372 24.2869 106.418 24.3001 106.47 24.3207L106.334 24.2869L105.489 27.6731C105.425 27.8321 105.263 28.0704 104.897 27.9799C104.91 27.9987 103.958 27.7456 103.958 27.7456L103.317 29.2245L104.998 29.6435C105.188 29.691 105.375 29.7399 105.561 29.7883C105.681 29.8196 105.8 29.8508 105.918 29.8811L105.384 32.0277L106.674 32.3496L107.204 30.2262C107.556 30.3218 107.898 30.4101 108.233 30.4933L107.705 32.6067L108.997 32.9286L109.531 30.7865C111.734 31.2033 113.39 31.0351 114.087 29.0435C114.648 27.4395 114.059 26.5143 112.9 25.9107C113.744 25.7153 114.38 25.1602 114.549 24.0135H114.55ZM111.598 28.1517C111.232 29.6238 108.927 29.0147 107.873 28.7363C107.779 28.7113 107.695 28.6891 107.623 28.6712L108.332 25.8279C108.42 25.8498 108.527 25.8739 108.649 25.9013C109.739 26.1458 111.973 26.6471 111.599 28.1517H111.598ZM108.868 24.5819C109.747 24.8165 111.664 25.3277 111.997 23.9904C112.339 22.6223 110.475 22.21 109.565 22.0086C109.463 21.9859 109.373 21.966 109.299 21.9476L108.656 24.5264C108.717 24.5415 108.788 24.5606 108.868 24.5819Z" fill="#CAFF33"/>
<path d="M168.229 26.03C168.229 35.5633 160.501 43.2916 150.968 43.2916C141.435 43.2916 133.706 35.5633 133.706 26.03C133.706 16.4968 141.435 8.76862 150.968 8.76862C160.501 8.76862 168.229 16.4968 168.229 26.03Z" fill="#262626"/>
<g opacity="0.8">
<path d="M150.912 18.0205L150.806 18.3829V28.8985L150.912 29.0049L155.794 26.1196L150.912 18.0205Z" fill="#CAFF33"/>
<path d="M150.913 18.0205L146.031 26.1196L150.913 29.005V23.901V18.0205Z" fill="#CAFF33"/>
<path d="M150.913 30.593L150.853 30.6663V34.4122L150.913 34.5876L155.797 27.7092L150.913 30.593Z" fill="#CAFF33"/>
<path d="M150.913 34.5877V30.593L146.031 27.7092L150.913 34.5877Z" fill="#CAFF33"/>
<path d="M150.913 29.005L155.794 26.1197L150.913 23.9011V29.005Z" fill="#CAFF33"/>
<path d="M146.031 26.1197L150.913 29.005V23.9011L146.031 26.1197Z" fill="#CAFF33"/>
</g>
</svg>
