<svg width="156" height="41" viewBox="0 0 156 41" fill="none" xmlns="http://www.w3.org/2000/svg">
<path d="M10.0108 20.0213L20.0215 10.0106L30.0322 20.0213L20.0215 30.032L10.0108 20.0213Z" fill="#CAFF33"/>
<path d="M36.706 13.3475L30.0322 20.0213V10.0106H20.0215L26.6953 3.33681H36.706V13.3475Z" fill="#CAFF33"/>
<path d="M36.706 26.6951L30.0322 20.0213V30.032H20.0215L26.6953 36.7058H36.706V26.6951Z" fill="#CAFF33"/>
<path d="M3.33706 26.6951L10.0108 20.0213V30.032H20.0215L13.3477 36.7058H3.33706L3.33706 26.6951Z" fill="#CAFF33"/>
<path d="M3.33706 13.3475L10.0108 20.0213V10.0106H20.0215L13.3477 3.33681H3.33706L3.33706 13.3475Z" fill="#CAFF33"/>
<path d="M59.4171 11.3454L53.2653 22.2078V29.3637H50.3659V22.2078L44.2142 11.3454H47.517L51.8282 19.3249L56.1143 11.3454H59.4171Z" fill="white"/>
<path d="M64.5773 29.6983C62.7284 29.6983 61.1569 29.0462 59.8626 27.742C58.5684 26.4378 57.9213 24.8333 57.9213 22.9286C57.9213 21.0238 58.5684 19.4193 59.8626 18.1151C61.1569 16.8109 62.7284 16.1588 64.5773 16.1588C66.443 16.1588 68.0146 16.8109 69.292 18.1151C70.5862 19.4193 71.2333 21.0238 71.2333 22.9286C71.2333 24.8333 70.5862 26.4378 69.292 27.742C68.0146 29.0462 66.443 29.6983 64.5773 29.6983ZM61.7788 25.8372C62.5351 26.6094 63.468 26.9955 64.5773 26.9955C65.6866 26.9955 66.6195 26.6094 67.3758 25.8372C68.1322 25.065 68.5104 24.0955 68.5104 22.9286C68.5104 21.7617 68.1322 20.7921 67.3758 20.0199C66.6195 19.2477 65.6866 18.8616 64.5773 18.8616C63.468 18.8616 62.5351 19.2477 61.7788 20.0199C61.0224 20.7921 60.6442 21.7617 60.6442 22.9286C60.6442 24.0955 61.0224 25.065 61.7788 25.8372Z" fill="white"/>
<path d="M82.1919 16.4934H84.9148V29.3637H82.1919V27.7163C81.3683 29.0376 80.0657 29.6983 78.284 29.6983C76.8385 29.6983 75.6704 29.2264 74.7795 28.2826C73.8887 27.3387 73.4433 26.0431 73.4433 24.3958V16.4934H76.1662V24.1126C76.1662 25.0736 76.4183 25.8115 76.9226 26.3263C77.4268 26.8411 78.1159 27.0985 78.99 27.0985C79.948 27.0985 80.7212 26.7982 81.3095 26.1976C81.8978 25.5798 82.1919 24.6446 82.1919 23.3919V16.4934Z" fill="white"/>
<path d="M90.8217 18.6556C91.5109 17.0597 92.8051 16.2618 94.7044 16.2618V19.2734C93.6623 19.2048 92.7547 19.4622 91.9815 20.0456C91.2083 20.6119 90.8217 21.5557 90.8217 22.8771V29.3637H88.0988V16.4934H90.8217V18.6556Z" fill="white"/>
<path d="M107.28 20.0199C108.053 20.4317 108.658 20.998 109.095 21.7188C109.532 22.4395 109.751 23.2718 109.751 24.2156C109.751 25.6914 109.238 26.9183 108.213 27.8965C107.188 28.8746 105.935 29.3637 104.456 29.3637H96.8927V11.3454H103.902C105.347 11.3454 106.566 11.8258 107.557 12.7868C108.566 13.7306 109.07 14.9147 109.07 16.339C109.07 17.9006 108.473 19.1275 107.28 20.0199ZM103.902 14.1253H99.7921V18.8616H103.902C104.54 18.8616 105.078 18.6385 105.515 18.1923C105.952 17.729 106.171 17.1627 106.171 16.4934C106.171 15.8242 105.952 15.2665 105.515 14.8203C105.078 14.357 104.54 14.1253 103.902 14.1253ZM104.456 26.5837C105.129 26.5837 105.692 26.3434 106.146 25.863C106.616 25.3653 106.852 24.7647 106.852 24.0611C106.852 23.3576 106.616 22.7655 106.146 22.285C105.692 21.7874 105.129 21.5386 104.456 21.5386H99.7921V26.5837H104.456Z" fill="white"/>
<path d="M122.212 16.4934H124.935V29.3637H122.212V27.5103C121.186 28.969 119.716 29.6983 117.799 29.6983C116.068 29.6983 114.589 29.0462 113.362 27.742C112.135 26.4207 111.522 24.8162 111.522 22.9286C111.522 21.0238 112.135 19.4193 113.362 18.1151C114.589 16.8109 116.068 16.1588 117.799 16.1588C119.716 16.1588 121.186 16.8796 122.212 18.321V16.4934ZM115.379 25.8887C116.135 26.6609 117.085 27.047 118.228 27.047C119.371 27.047 120.321 26.6609 121.077 25.8887C121.833 25.0993 122.212 24.1126 122.212 22.9286C122.212 21.7445 121.833 20.7664 121.077 19.9941C120.321 19.2048 119.371 18.8101 118.228 18.8101C117.085 18.8101 116.135 19.2048 115.379 19.9941C114.623 20.7664 114.245 21.7445 114.245 22.9286C114.245 24.1126 114.623 25.0993 115.379 25.8887Z" fill="white"/>
<path d="M134.739 16.1588C136.185 16.1588 137.353 16.6307 138.244 17.5745C139.134 18.5184 139.58 19.814 139.58 21.4613V29.3637H136.857V21.7445C136.857 20.7835 136.605 20.0456 136.101 19.5308C135.596 19.016 134.907 18.7586 134.033 18.7586C133.075 18.7586 132.302 19.0675 131.714 19.6853C131.125 20.2859 130.831 21.2125 130.831 22.4652V29.3637H128.108V16.4934H130.831V18.1408C131.655 16.8195 132.957 16.1588 134.739 16.1588Z" fill="white"/>
<path d="M156 29.3637H152.546L145.588 20.7921V29.3637H142.688V11.3454H145.588V19.4279L152.294 11.3454H155.748L148.613 20.1228L156 29.3637Z" fill="white"/>
</svg>
