<svg width="17" height="17" viewBox="0 0 17 17" fill="none" xmlns="http://www.w3.org/2000/svg">
<path fill-rule="evenodd" clip-rule="evenodd" d="M11.9003 0.254642C11.6009 0.577143 11.6196 1.08135 11.9421 1.38081L14.1737 3.4531L5.04684 3.4531C4.60674 3.4531 4.24997 3.80987 4.24997 4.24997C4.24997 4.69007 4.60674 5.04684 5.04684 5.04684L14.1737 5.04684L11.9421 7.11913C11.6196 7.4186 11.6009 7.9228 11.9003 8.2453C12.1998 8.5678 12.704 8.58648 13.0265 8.28701L16.7452 4.83391C16.9076 4.68313 16.9999 4.47156 16.9999 4.24997C16.9999 4.02839 16.9076 3.81681 16.7452 3.66603L13.0265 0.212932C12.704 -0.0865336 12.1998 -0.0678593 11.9003 0.254642ZM5.09953 8.75458C4.80007 8.43208 4.29586 8.4134 3.97336 8.71287L0.254638 12.166C0.0922634 12.3167 0 12.5283 0 12.7499C0 12.9715 0.0922634 13.1831 0.254638 13.3338L3.97336 16.7869C4.29586 17.0864 4.80007 17.0677 5.09953 16.7452C5.399 16.4227 5.38032 15.9185 5.05782 15.6191L2.82613 13.5468H11.953C12.3931 13.5468 12.7499 13.19 12.7499 12.7499C12.7499 12.3098 12.3931 11.953 11.953 11.953H2.82613L5.05782 9.88075C5.38032 9.58128 5.399 9.07708 5.09953 8.75458Z" fill="#1C1C1C"/>
</svg>
